<?xml version="1.0" encoding="utf-8"?>
<svg version="1.2" baseProfile="tiny-ps" viewBox="0 0 512 512" xmlns="http://www.w3.org/2000/svg">
  <title>Ivan Deliverability Expert</title>
  <rect width="512" height="512" fill="#001a4d" />
  <g fill="#ffffff">
    <rect x="50" y="60" width="25" height="80" />
    <path d="M90 60l25 80h25l25-80h-22l-15 50-15-50z" />
    <path d="M175 60l-20 80h22l5-20h25l5 20h22l-20-80h-39zm12 45l8-30 8 30z" />
    <path d="M255 60h22l35 55v-55h22v80h-22l-35-55v55h-22z" />
  </g>
  <g fill="#94a3b8">
    <path d="M180 160v35h15c10 0 15-5 15-17s-5-18-15-18h-15zm8 7h6c5 0 8 3 8 10s-3 10-8 10h-6v-20z" />
    <path d="M220 160v35h22v-7h-14v-7h10v-7h-10v-7h14v-7z" />
    <path d="M250 160v35h20v-7h-12v-28z" />
    <rect x="280" y="160" width="8" height="35" />
    <path d="M295 160l10 35h10l10-35h-9l-6 22l-6-22z" />
    <path d="M330 160v35h22v-7h-14v-7h10v-7h-10v-7h14v-7z" />
    <path d="M360 160v35h8v-12h4l6 12h10l-7-14c5-2 7-5 7-9s-4-12-14-12h-14zm8 7h6c4 0 6 2 6 5s-2 5-6 5h-6v-10z" />
  </g>
  <path d="M60 440 Q 200 160 440 380" fill="none" stroke="#3b82f6" stroke-width="6" />
  <path d="M400 340l80 30-20 50-80-30z" fill="#ffffff" />
  <path d="M400 340l40 40 40-20" fill="none" stroke="#001a4d" stroke-width="5" stroke-linejoin="round" />
</svg>